<svg width="44" height="48" viewBox="0 0 44 48" fill="none" xmlns="http://www.w3.org/2000/svg">
<path d="M44 22C44 17.588 40.412 14 36 14V10C36 4.486 31.514 0 26 0H18C12.486 0 8 4.486 8 10V14C3.588 14 0 17.588 0 22V32C0 32.034 9.33651e-08 32.07 0.00200009 32.104C0.0580001 35.364 2.726 38 6 38H20V44H12C10.896 44 10 44.894 10 46C10 47.106 10.896 48 12 48H32C33.104 48 34 47.106 34 46C34 44.894 33.104 44 32 44H24V38H38C41.274 38 43.942 35.364 43.998 32.104C43.998 32.07 44 32.036 44 32V22ZM40 22V26.344C39.374 26.122 38.702 26 38 26H36V18C38.206 18 40 19.794 40 22ZM12 10C12 6.692 14.692 4 18 4H26C29.308 4 32 6.692 32 10V26H12V10ZM8 18V26H6C5.298 26 4.626 26.122 4 26.344V22C4 19.794 5.794 18 8 18ZM38 34H6C4.898 34 4 33.104 4 32C4 30.896 4.898 30 6 30H38C39.102 30 40 30.896 40 32C40 33.104 39.102 34 38 34Z" fill="#4E991C"/>
</svg>
