<svg width="48" height="48" viewBox="0 0 48 48" fill="none" xmlns="http://www.w3.org/2000/svg">
<g clip-path="url(#clip0_1_8)">
<path d="M5 5C5 2.238 7.238 0 10 0C12.762 0 15 2.238 15 5C15 7.762 12.762 10 10 10C7.238 10 5 7.762 5 5ZM48 34C48 41.718 41.72 48 34 48C26.28 48 20 41.718 20 34C20 26.282 26.28 20 34 20C41.72 20 48 26.282 48 34ZM44 34C44 28.486 39.514 24 34 24C28.486 24 24 28.486 24 34C24 38.828 27.442 42.87 32 43.798V40H36V43.798C40.558 42.868 44 38.828 44 34ZM20 22.698C17.502 25.788 16 29.718 16 34V48H12V34H8V48H4V34H0V18C0 14.692 2.692 12 6 12H14C17.274 12 19.942 14.636 19.998 17.896C19.998 17.93 20 22.698 20 22.698ZM16 18C16 16.896 15.102 16 14 16H6C4.898 16 4 16.896 4 18V30H16V18ZM35.072 26.096C33.302 25.774 31.506 26.258 30.146 27.402C28.782 28.546 28.002 30.222 28.002 32H32.002C32.002 31.406 32.262 30.848 32.718 30.466C33.178 30.08 33.77 29.924 34.382 30.034C35.164 30.17 35.832 30.836 35.968 31.62C36.154 32.682 35.544 33.434 34.964 33.752C34.078 34.24 32.002 35.382 32.002 37.998H36.002C36.002 37.892 36.002 37.748 36.896 37.256C39.144 36.014 40.354 33.472 39.908 30.928C39.482 28.504 37.492 26.516 35.074 26.094L35.072 26.096Z" fill="#4E991C"/>
</g>
<defs>
<clipPath id="clip0_1_8">
<rect width="48" height="48" fill="white"/>
</clipPath>
</defs>
</svg>
