<svg width="48" height="48" viewBox="0 0 48 48" fill="none" xmlns="http://www.w3.org/2000/svg">
<path d="M5 5C5 2.238 7.238 0 10 0C12.762 0 15 2.238 15 5C15 7.762 12.762 10 10 10C7.238 10 5 7.762 5 5ZM48 34C48 41.718 41.718 48 34 48C26.282 48 20 41.718 20 34C20 26.282 26.282 20 34 20C41.718 20 48 26.282 48 34ZM44 34C44 28.486 39.514 24 34 24C28.486 24 24 28.486 24 34C24 39.514 28.486 44 34 44C39.514 44 44 39.514 44 34ZM36 28H32V32H28V36H32V40H36V36H40V32H36V28ZM20 22.698C17.502 25.788 16 29.718 16 34V48H12V34H8V48H4V34H0V18C0 14.692 2.692 12 6 12H14C17.274 12 19.942 14.636 19.998 17.896C19.998 17.93 20 22.698 20 22.698ZM16 18C16 16.896 15.104 16 14 16H6C4.896 16 4 16.896 4 18V30H16V18Z" fill="#4E991C"/>
</svg>
