<svg width="48" height="48" viewBox="0 0 48 48" fill="none" xmlns="http://www.w3.org/2000/svg">
<g clip-path="url(#clip0_1_10)">
<path d="M11 14C14.86 14 18 10.86 18 7C18 3.14 14.86 0 11 0C7.14 0 4 3.14 4 7C4 10.86 7.14 14 11 14ZM11 4C12.654 4 14 5.346 14 7C14 8.654 12.654 10 11 10C9.346 10 8 8.654 8 7C8 5.346 9.346 4 11 4ZM10 20C6.692 20 4 22.692 4 26C4 27.106 3.104 28 2 28C0.896 28 0 27.106 0 26C0 20.486 4.486 16 10 16C11.104 16 12 16.894 12 18C12 19.106 11.104 20 10 20ZM24 34C24 35.106 23.104 36 22 36H20C16.692 36 14 38.692 14 42C14 43.106 13.104 44 12 44C10.896 44 10 43.106 10 42C10 36.486 14.486 32 20 32H22C23.104 32 24 32.894 24 34ZM31 14C34.86 14 38 10.86 38 7C38 3.14 34.86 0 31 0C27.14 0 24 3.14 24 7C24 10.86 27.14 14 31 14ZM31 4C32.654 4 34 5.346 34 7C34 8.654 32.654 10 31 10C29.346 10 28 8.654 28 7C28 5.346 29.346 4 31 4ZM32 16C35.558 16 38.878 17.916 40.662 20.998C41.214 21.956 40.888 23.178 39.932 23.73C39.618 23.914 39.272 24 38.932 24C38.242 24 37.57 23.642 37.198 23.002C36.128 21.15 34.136 20 32 20C30.896 20 30 19.106 30 18C30 16.894 30.896 16 32 16ZM48 38C48 39.106 47.104 40 46 40H40V46C40 47.106 39.104 48 38 48C36.896 48 36 47.106 36 46V40H30C28.896 40 28 39.106 28 38C28 36.894 28.896 36 30 36H36V30C36 28.894 36.896 28 38 28C39.104 28 40 28.894 40 30V36H46C47.104 36 48 36.894 48 38ZM21 16C17.14 16 14 19.14 14 23C14 26.86 17.14 30 21 30C24.86 30 28 26.86 28 23C28 19.14 24.86 16 21 16ZM21 26C19.346 26 18 24.654 18 23C18 21.346 19.346 20 21 20C22.654 20 24 21.346 24 23C24 24.654 22.654 26 21 26Z" fill="#4E991C"/>
</g>
<defs>
<clipPath id="clip0_1_10">
<rect width="48" height="48" fill="white"/>
</clipPath>
</defs>
</svg>
