<svg width="16" height="16" viewBox="0 0 16 16" fill="none" xmlns="http://www.w3.org/2000/svg">
<rect width="16" height="16" fill="white"/>
<path d="M4.00132 2.61715C4.00132 2.0707 4.00132 1.54207 4.00132 1.00185C4.66679 1.00185 5.32759 1.00185 5.99986 1.00185C5.99986 1.06965 5.99986 1.13344 5.99986 1.19724C5.99986 4.48292 6.00037 7.76859 5.99945 11.0543C5.99925 11.7517 5.95595 12.4405 5.77434 13.103C5.47455 14.1968 4.88367 14.7914 4.04212 14.9452C3.48367 15.0473 2.93036 15.0198 2.39369 14.7498C1.83927 14.4709 1.4828 13.9291 1.25911 13.2072C1.04958 12.531 1.0051 11.8144 1.00375 11.0959C0.99747 7.76268 1.00097 4.42946 1.00098 1.09625C1.00098 1.06741 1.00098 1.03857 1.00098 1C1.66883 1 2.32991 1 3.0017 1C3.0017 1.07688 3.0017 1.147 3.0017 1.21712C3.0017 4.44932 2.9994 7.68153 3.00498 10.9137C3.00559 11.2673 3.03625 11.6243 3.08098 11.9732C3.12227 12.2952 3.26404 12.4331 3.49206 12.4449C3.70942 12.4561 3.85695 12.3269 3.91579 12.016C3.96319 11.7655 3.99524 11.5021 3.99579 11.2443C4.00193 8.37452 4.00062 5.50475 4.00132 2.61715Z" fill="#020202"/>
<path d="M12 9.44367C12 11.3034 12 13.1478 12 15C11.3242 15 10.6559 15 9.97784 15C9.97784 12.8876 9.97784 10.7751 9.97784 8.65359C9.65582 8.65359 9.34336 8.65359 9.02161 8.65359C9.02161 10.7641 9.02161 12.877 9.02161 14.9988C8.34432 14.9988 7.67623 14.9988 7 14.9988C7 10.3362 7 5.67133 7 1C7.67004 1 8.33841 1 9.01557 1C9.01557 2.66086 9.01557 4.32039 9.01557 5.98901C9.3367 5.98901 9.64918 5.98901 9.97006 5.98901C9.97006 4.33289 9.97006 2.67309 9.97006 1.00343C10.649 1.00343 11.3197 1.00343 12 1.00343C12 3.81386 12 6.62112 12 9.44367Z" fill="black"/>
<path d="M13.2483 8.06682C13.1656 5.70631 13.083 3.35857 13 1C13.6642 1 14.3262 1 15 1C14.867 4.66446 14.7341 8.32706 14.6008 12C14.1977 12 13.7975 12 13.3884 12C13.3418 10.6939 13.295 9.38676 13.2483 8.06682Z" fill="#327326"/>
<path d="M13 13.7269C13 13.4794 13 13.2425 13 13C13.6714 13 14.3332 13 15 13C15 13.6655 15 14.3315 15 15C14.3323 15 13.6709 15 13 15C13 14.5754 13 14.1564 13 13.7269Z" fill="#337427"/>
</svg>
