<svg width="83" height="40" viewBox="0 0 83 40" fill="none" xmlns="http://www.w3.org/2000/svg">
<path d="M47.4515 26.6374C47.4515 30.7653 47.4515 34.8592 47.4515 38.9706C45.3429 38.9706 43.2573 38.9706 41.1416 38.9706C41.1416 34.2818 41.1416 29.5927 41.1416 24.8837C40.1368 24.8837 39.1618 24.8837 38.1578 24.8837C38.1578 29.5682 38.1578 34.2581 38.1578 38.968C36.0444 38.968 33.9597 38.968 31.8496 38.968C31.8496 28.6185 31.8496 18.264 31.8496 7.89526C33.9404 7.89526 36.0259 7.89526 38.1389 7.89526C38.1389 11.5818 38.1389 15.2654 38.1389 18.9692C39.141 18.9692 40.116 18.9692 41.1173 18.9692C41.1173 15.2932 41.1173 11.609 41.1173 7.90288C43.236 7.90288 45.3286 7.90288 47.4515 7.90288C47.4515 14.1411 47.4515 20.3723 47.4515 26.6374Z" fill="white"/>
<path d="M58.3439 38.8524C58.2541 38.8161 58.1604 38.7896 58.147 38.7416C58.1204 38.6467 58.1377 38.54 58.1377 38.4381C58.1375 26.7941 58.1374 15.1501 58.1372 3.50615C58.1372 3.37254 58.1372 3.23893 58.1372 3.09034C60.5854 3.09034 63.0044 3.09034 65.4498 3.09034C65.4498 12.9779 65.4498 22.8509 65.4498 32.7476C67.9667 32.7476 70.4573 32.7476 72.9693 32.7476C72.9693 34.7892 72.9693 36.8073 72.9693 38.8524C68.0974 38.8524 63.2368 38.8524 58.3439 38.8524Z" fill="white"/>
<path d="M16.25 35.1255C16.25 26.9458 16.25 18.8001 16.25 10.6326C16.3533 10.6249 16.4413 10.6126 16.5292 10.6125C19.0129 10.6115 21.4965 10.6075 23.9802 10.6138C24.9901 10.6163 25.9811 10.7407 26.9252 11.1241C28.1532 11.6229 28.9696 12.5204 29.527 13.6741C30.1748 15.0148 30.4161 16.4495 30.5064 17.91C30.6191 19.7322 30.5839 21.551 30.1716 23.3437C29.9554 24.2841 29.6552 25.192 29.0987 26.0048C28.3459 27.1045 27.2521 27.6859 25.961 27.8379C24.8084 27.9735 23.6362 27.9497 22.4726 27.9949C22.3474 27.9997 22.2218 27.9955 22.0656 27.9955C22.0656 31.796 22.0656 35.5794 22.0656 39.3791C20.1219 39.3791 18.209 39.3791 16.25 39.3791C16.25 37.9775 16.25 36.5685 16.25 35.1255ZM24.4539 21.7313C24.7779 20.8732 24.7426 19.9742 24.7354 19.0854C24.7289 18.2973 24.6922 17.505 24.3755 16.7559C24.2098 16.3638 23.9346 16.0667 23.5277 15.975C23.0553 15.8686 22.5613 15.8543 22.0781 15.8002C22.0781 18.1818 22.0781 20.4819 22.0781 22.7871C23.0381 22.8067 23.9425 22.7555 24.4539 21.7313Z" fill="white"/>
<path d="M8.83254 15.7725C8.83254 14.7318 8.83254 13.725 8.83254 12.6961C10.5815 12.6961 12.3181 12.6961 14.0849 12.6961C14.0849 12.8252 14.0849 12.9467 14.0849 13.0682C14.0849 19.326 14.0862 25.5839 14.0838 31.8417C14.0833 33.17 13.9695 34.4818 13.4922 35.7437C12.7043 37.8268 11.1514 38.9594 8.93978 39.2524C7.47214 39.4468 6.018 39.3944 4.60759 38.8802C3.15053 38.349 2.2137 37.3171 1.62583 35.9421C1.07515 34.6542 0.958266 33.2894 0.954709 31.9209C0.938207 25.5726 0.947416 19.2242 0.94742 12.8759C0.94742 12.8209 0.94742 12.766 0.94742 12.6926C2.7026 12.6926 4.43995 12.6926 6.20547 12.6926C6.20547 12.839 6.20547 12.9725 6.20547 13.1061C6.20548 19.2621 6.19943 25.4181 6.21411 31.574C6.21571 32.2474 6.29628 32.9274 6.41384 33.5918C6.52235 34.2052 6.89492 34.4678 7.49418 34.4902C8.06543 34.5116 8.45315 34.2655 8.60777 33.6734C8.73234 33.1964 8.81657 32.6946 8.81802 32.2036C8.83417 26.7379 8.83071 21.2722 8.83254 15.7725Z" fill="white"/>
<path d="M49.3808 18.4208C49.3808 14.0898 49.3808 9.79275 49.3808 5.47738C51.5783 5.47738 53.7553 5.47738 55.9567 5.47738C55.9567 16.6114 55.9567 27.7469 55.9567 38.9005C53.7822 38.9005 51.6042 38.9005 49.3808 38.9005C49.3808 32.0878 49.3808 25.2713 49.3808 18.4208Z" fill="white"/>
<path d="M75.6096 18.4686C75.282 12.5282 74.9545 6.61996 74.6255 0.684471C77.2581 0.684471 79.8818 0.684471 82.5523 0.684471C82.0252 9.9063 81.4984 19.1235 80.9702 28.3666C79.3724 28.3666 77.7865 28.3666 76.165 28.3666C75.98 25.0798 75.7948 21.7903 75.6096 18.4686Z" fill="white"/>
<path d="M74.6201 34.6502C74.6201 33.8504 74.6201 33.0846 74.6201 32.3011C77.2754 32.3011 79.8924 32.3011 82.5296 32.3011C82.5296 34.4517 82.5296 36.6041 82.5296 38.7644C79.889 38.7644 77.2733 38.7644 74.6201 38.7644C74.6201 37.3921 74.6201 36.0381 74.6201 34.6502Z" fill="white"/>
</svg>
